<svg xmlns="http://www.w3.org/2000/svg"  viewBox="0 0 64 64" width="64px" height="64px"><path d="M 32 2 C 17.100526 2 5 14.100526 5 29 C 5 43.556936 16.573604 55.35965 31 55.898438 L 31 62.769531 A 1.0001 1.0001 0 0 0 32.429688 63.671875 C 32.429688 63.671875 46.22566 57.149743 53.957031 44.701172 C 57.126009 40.276789 59 34.854236 59 29 C 59 28.740094 58.988382 28.510251 58.982422 28.296875 C 58.982494 28.292775 58.98232 28.283537 58.982422 28.279297 C 58.985383 28.156269 59 27.992008 59 27.769531 C 59 27.348229 58.950173 26.954334 58.882812 26.582031 C 57.657826 12.808156 46.084082 2 32 2 z M 32 4 C 45.077508 4 55.78469 14.021571 56.898438 26.802734 A 1.0001 1.0001 0 0 0 56.910156 26.898438 C 56.966125 27.198409 57 27.484879 57 27.769531 C 57 27.883392 56.986252 28.043683 56.982422 28.261719 A 1.0001 1.0001 0 0 0 56.982422 28.304688 C 56.988844 28.561476 57 28.791058 57 29 C 57 34.440582 55.260537 39.462238 52.3125 43.566406 A 1.0001 1.0001 0 0 0 52.275391 43.623047 C 46.135466 53.527022 36.206261 59.372995 33 61.095703 L 33 55 A 1.0001 1.0001 0 0 0 32 54 C 18.181474 54 7 42.818526 7 29 C 7 15.181474 18.181474 4 32 4 z M 32.001953 7 C 27.470953 7 23.122734 8.3634063 19.427734 10.941406 C 18.974734 11.258406 18.864687 11.880984 19.179688 12.333984 C 19.373687 12.612984 19.686953 12.761719 20.001953 12.761719 C 20.198953 12.761719 20.398266 12.703031 20.572266 12.582031 C 23.930266 10.238031 27.882953 9 32.001953 9 C 33.661953 9 35.320687 9.2052812 36.929688 9.6132812 C 37.460687 9.7452813 38.007531 9.4236719 38.144531 8.8886719 C 38.278531 8.3536719 37.954922 7.8098281 37.419922 7.6738281 C 35.650922 7.2268281 33.827953 7 32.001953 7 z M 40.974609 8.9882812 C 40.585594 8.9728125 40.205547 9.18675 40.029297 9.5625 C 39.794297 10.0615 40.009766 10.657578 40.509766 10.892578 C 41.499766 11.358578 42.461234 11.911109 43.365234 12.537109 C 43.538234 12.657109 43.737594 12.716797 43.933594 12.716797 C 44.250594 12.716797 44.561813 12.564156 44.757812 12.285156 C 45.071813 11.831156 44.959859 11.208531 44.505859 10.894531 C 43.509859 10.205531 42.451375 9.5950312 41.359375 9.0820312 C 41.234875 9.0232813 41.104281 8.9934375 40.974609 8.9882812 z M 21 17 C 18.250484 17 16 19.250484 16 22 L 16 35 C 16 37.749516 18.250484 40 21 40 L 38 40 C 40.749516 40 43 37.749516 43 35 L 43 33.146484 L 47.271484 37.685547 A 1.0001 1.0001 0 0 0 49 37 L 49 20 A 1.0001 1.0001 0 0 0 47.271484 19.314453 L 43 23.853516 L 43 22 C 43 19.250484 40.749516 17 38 17 L 21 17 z M 21 19 L 38 19 C 39.668484 19 41 20.331516 41 22 L 41 26.375 A 1.0001 1.0001 0 0 0 42.728516 27.060547 L 47 22.521484 L 47 34.478516 L 42.728516 29.939453 A 1.0001 1.0001 0 0 0 41 30.625 L 41 35 C 41 36.668484 39.668484 38 38 38 L 21 38 C 19.331516 38 18 36.668484 18 35 L 18 22 C 18 20.331516 19.331516 19 21 19 z M 21.984375 26.986328 A 1.0001 1.0001 0 0 0 21 28 L 21 30 A 1.0001 1.0001 0 1 0 23 30 L 23 28 A 1.0001 1.0001 0 0 0 21.984375 26.986328 z M 26.984375 26.986328 A 1.0001 1.0001 0 0 0 26 28 L 26 30 A 1.0001 1.0001 0 1 0 28 30 L 28 28 A 1.0001 1.0001 0 0 0 26.984375 26.986328 z M 31.984375 26.986328 A 1.0001 1.0001 0 0 0 31 28 L 31 30 A 1.0001 1.0001 0 1 0 33 30 L 33 28 A 1.0001 1.0001 0 0 0 31.984375 26.986328 z M 36.984375 26.986328 A 1.0001 1.0001 0 0 0 36 28 L 36 30 A 1.0001 1.0001 0 1 0 38 30 L 38 28 A 1.0001 1.0001 0 0 0 36.984375 26.986328 z M 20.785156 44.546875 A 1.0001 1.0001 0 0 0 19.96875 44.996094 L 18.845703 46.652344 A 1.0001 1.0001 0 1 0 20.5 47.775391 L 21.623047 46.119141 A 1.0001 1.0001 0 0 0 20.785156 44.546875 z M 43.185547 44.546875 A 1.0001 1.0001 0 0 0 42.376953 46.119141 L 43.5 47.775391 A 1.0001 1.0001 0 1 0 45.154297 46.652344 L 44.03125 44.996094 A 1.0001 1.0001 0 0 0 43.185547 44.546875 z M 25.060547 46.710938 A 1.0001 1.0001 0 0 0 24.078125 47.375 L 23.380859 49.248047 A 1.0001 1.0001 0 1 0 25.253906 49.947266 L 25.951172 48.072266 A 1.0001 1.0001 0 0 0 25.060547 46.710938 z M 39.007812 46.710938 A 1.0001 1.0001 0 0 0 38.048828 48.072266 L 38.746094 49.947266 A 1.0001 1.0001 0 1 0 40.619141 49.248047 L 39.921875 47.375 A 1.0001 1.0001 0 0 0 39.007812 46.710938 z M 29.632812 47.828125 A 1.0001 1.0001 0 0 0 28.634766 48.724609 L 28.398438 50.710938 A 1.0001 1.0001 0 1 0 30.384766 50.945312 L 30.619141 48.960938 A 1.0001 1.0001 0 0 0 29.632812 47.828125 z M 34.337891 47.828125 A 1.0001 1.0001 0 0 0 33.380859 48.960938 L 33.615234 50.945312 A 1.0001 1.0001 0 1 0 35.601562 50.710938 L 35.365234 48.724609 A 1.0001 1.0001 0 0 0 34.337891 47.828125 z"/></svg>